<?xml version="1.0" encoding="utf-8"?>
<!-- Generator: Adobe Illustrator 19.2.1, SVG Export Plug-In . SVG Version: 6.00 Build 0)  -->
<svg version="1.1" id="layer" xmlns="http://www.w3.org/2000/svg" xmlns:xlink="http://www.w3.org/1999/xlink" x="0px" y="0px"
	 viewBox="0 0 652 652" style="enable-background:new 0 0 652 652;" xml:space="preserve">
<style type="text/css">
	.st0{fill:#00AEEF;}
	.st1{fill:#FFFFFF;}
	.st2{fill:#FFAD26;}
</style>
<rect x="-151.9" y="75" class="st0" width="955.9" height="500"/>
<g id="Usa_1_">
	<path class="st1" d="M564.1,452.5l17.2-87.2c5-25.8-15.4-35.4-29-35.4c-21.7,0-37.5,11.1-51.1,25.8H501
		c-3.2-16.2-13.8-25.8-29.3-25.8c-15.7,0-32.1,7.7-50.4,31.5h-1.1l5.1-27.8c-21.8-0.8-42.5,0.3-63.4,2.6l-5.5,28.4
		c8.4,0.6,16.3,1.7,22.7,2.9l2.4,0.4l-21.3,107.4c-1,5.9,0.9,9.2,7.3,9.2H406l18.2-92.6c4-8.3,16-18.1,22.2-18.1
		c7.7,0,8.9,6,7.7,12.7l-17.6,88.8c-0.9,4.8-1.5,9.2,5.9,9.2h39.7l17.5-92.1c6.1-10.1,18-18.6,25.1-18.6c5.6,0,6.9,5.3,5.4,12.7
		l-13.5,69.8c-3.2,16.4,3,30.4,28,30.4c14.1,0,28-2.4,39-9.3l5.2-25L564.1,452.5L564.1,452.5z M331.4,268.1
		c-14.2,0-27.4,11.3-27.4,26.8c0,12,9.6,23.3,23.9,23.3c14.2,0,27.5-11.3,27.5-27.5C355.3,279,345.3,268.1,331.4,268.1z
		 M344.8,333.5h-47.2l-21.5,111.2c-1,5-1.4,12.6-1.4,16.1c0,12.1,5.6,25.8,31.6,25.8c16.3,0,30.1-3.2,36.6-9.6l4.5-24.8h-25.6
		L344.8,333.5z M273,263.6c-21.8-0.9-55.2,0.3-76,2.6l-5.5,28.4c8.4,0.6,17.9,1.7,24.3,2.9l3.3,1l-25.8,132.1
		c-2,10.4-3.7,19.1-3.7,27.2c0,8,3.4,28.9,31.9,28.9c15.2,0,27.5-4,35.8-9.2l4.5-24.1h-25.8C236.1,453.4,273,263.6,273,263.6z
		 M172.6,341.1c-9.6-7.6-23.9-11.7-40.1-11.7c-34,0-89.8,24.2-89.8,99.3c0,43.8,39.4,57.6,64.3,57.6c26.2,0,48.2-4.8,59.6-8.6
		l-0.9-31.5l-0.6-0.5c-13.1,4.3-28.1,7.7-41,7.7c-11.8,0-21.7-1.7-27.4-6.6c-5.5-4.2-7.6-11.7-7.6-19.8c0-12.3,3.9-32.7,12.3-47.7
		c2.1-4,4.8-7.7,8.1-10.9c0.3-0.3,0.7-0.6,1-0.9c0.6-0.5,1.3-1.1,1.9-1.6c3.5-2.7,7.3-4.4,11.6-5c0.9-0.2,1.9-0.3,2.9-0.3l0.1,0
		l0.1,0c0.4,0,0.8-0.1,1.2-0.1c6.3,0,13.4,2.3,13.4,11.1c0,2.1-0.4,4-1,5.8l0,0l14.6,7.6c6.2-2.3,13.4-7.2,19.7-15.2
		C186.5,354.8,176.8,344.4,172.6,341.1z M748.6,450.1l-24.7,0.1l7.6-38.6l0-0.1c1.7-8.5,2.5-17.1,2.5-25.8
		c0-43.8-39.4-57.6-64.3-57.6c-26.2,0-48.2,4.8-59.5,8.6l0.9,31.5l0.6,0.5c13.1-4.3,28.2-7.7,41-7.7c19.1,0,32.7,4.4,32.7,19.7
		c0,4.1-0.4,7.1-0.7,9.9c-43.2-3.5-93.6,7.7-93.6,56.2c0,24.4,23.1,38.3,53.2,38.3c8.3,0,17.9-1.5,27.6-4.7l-0.1,0.1l30.4-8.1l0,0.1
		c-0.9,1.3-1.3,2.8-1.4,4.4c0,4.5,3.7,8.1,8.4,8.1c0.3,0,0.6-0.1,0.9-0.1c13.8-0.1,27.4-2.6,38.2-9.4l5.3-25.2L748.6,450.1
		L748.6,450.1z M648.6,453.7c-6.3,0-13.4-2.3-13.4-11.1c0-20.4,32.7-23.6,45.3-22.1C677.8,435.1,666.9,453.7,648.6,453.7z"/>
	<path class="st2" d="M688.2,240c-39.7-36.7-92.8-59.1-151.2-59.1c-4.5,0-9,0.2-13.5,0.4c-11.6,0.6-23.2,2-34.6,4.4
		C436,133.1,364,101.4,283.4,101.4c-91.8,0-173.7,42.3-227.3,108.4c-1.2,1.4-2.3,2.8-3.4,4.1c-85.8,4.3-154,75.3-154,162.1
		c0,67.5,41.2,125.3,99.7,149.8v0c-21.7-10.3-40.5-25.8-54.9-45c-0.7-1-1.5-2-2.2-3v0c-4.4-6.3-8.3-12.8-11.8-19.7
		c-10.1-20.3-15.3-42.6-15.3-65.3c0-81.4,66-147.4,147.4-147.4c0.5,0,0.9,0,1.4,0C111.9,176.9,192.1,132,282.8,132
		c75.6,0,143.9,31.2,192.9,81.3c0.4,0.4,0.8,0.8,1.2,1.2c23.4-7.6,47.8-11.5,72.4-11.4c69.9,0,132.6,30.6,175.6,79.1
		C714.4,266.7,702.1,252.5,688.2,240L688.2,240z"/>
	<path class="st1" d="M724.8,282.1c-43-48.5-105.7-79.1-175.6-79.1c-25.3,0-49.6,4-72.4,11.4c-0.4-0.4-0.8-0.8-1.2-1.2
		c-49-50.1-117.2-81.3-192.8-81.3c-90.7,0-170.9,44.8-219.8,113.5c-0.5,0-0.9,0-1.4,0c-81.4,0-147.4,66-147.4,147.4
		c0,23.5,5.5,45.6,15.3,65.3c4,8,8.7,15.6,13.9,22.7c13.1,17.5,29.9,31.9,49.3,42.1l0.5,0.3c7.2,3.8,14.7,7,22.5,9.5l0.2-0.9
		l0.2-0.7c-45.3-22.3-76.5-68.8-76.5-122.7c0-75.5,61.2-136.7,136.7-136.7c2.7,0,5.4,0.1,8.1,0.3c4.9-7.4,10.2-14.6,15.9-21.4
		c43.7-52.4,109.4-85.7,182.9-85.7c61.5,0,117.4,23.3,159.7,61.5c0.5,0.4,0.9,0.8,1.4,1.2c8.2,7.6,15.9,15.7,23,24.3
		c31.9-16.5,67.3-25,103.2-25c62.9,0,119.7,25.8,160.7,67.3l0.5,0.4l2-2.1C730.8,289.1,727.9,285.6,724.8,282.1L724.8,282.1z"/>
</g>
</svg>
